<svg height="70" viewBox="0 0 79 70" width="79" xmlns="http://www.w3.org/2000/svg"><g fill="none"><path d="m10.9375 48.125h-8.75c-1.20859375 0-2.1875.9789063-2.1875 2.1875v17.5c0 1.2085937.97890625 2.1875 2.1875 2.1875h8.75c1.2085938 0 2.1875-.9789063 2.1875-2.1875v-17.5c0-1.2085937-.9789062-2.1875-2.1875-2.1875zm-2.1875 17.5h-4.375v-13.125h4.375zm67.8125-39.375h-8.75c-1.2085937 0-2.1875.9789062-2.1875 2.1875v39.375c0 1.2085938.9789063 2.1875 2.1875 2.1875h8.75c1.2085938 0 2.1875-.9789062 2.1875-2.1875v-39.375c0-1.2085938-.9789062-2.1875-2.1875-2.1875zm-2.1875 39.375h-4.375v-35h4.375zm-5.6369141-53.5007812c1.0048829.6234374 2.1792969 1.0007812 3.4494141 1.0007812 3.6244141 0 6.5625-2.9380859 6.5625-6.5625 0-3.62441406-2.9380859-6.5625-6.5625-6.5625s-6.5625 2.93808594-6.5625 6.5625c0 .75332031.153125 1.46425781.3869141 2.13828125l-12.25 9.79999995c-1.0048828-.6248046-2.1792969-1.0021484-3.4494141-1.0021484s-2.4445313.3773438-3.4494141 1.0021484l-12.25-9.79999995c.2337891-.67265625.3869141-1.38496094.3869141-2.13828125 0-3.62441406-2.9380859-6.5625-6.5625-6.5625s-6.5625 2.93808594-6.5625 6.5625c0 1.01171875.2474609 1.9578125.65625 2.81367187l-13.15507812 13.15507813c-.85585938-.4087891-1.80195313-.65625-2.81367188-.65625-3.62441406 0-6.5625 2.9380859-6.5625 6.5625s2.93808594 6.5625 6.5625 6.5625c3.6244141 0 6.5625-2.9380859 6.5625-6.5625 0-1.0117188-.2474609-1.9578125-.65625-2.8136719l13.1550781-13.1550781c.8558594.4087891 1.8019531.65625 2.8136719.65625 1.2701172 0 2.4445313-.3773438 3.4494141-1.0021484l12.25 9.8c-.2337891.6740234-.3869141 1.3863281-.3869141 2.1396484 0 3.6244141 2.9380859 6.5625 6.5625 6.5625s6.5625-2.9380859 6.5625-6.5625c0-.7533203-.153125-1.465625-.3869141-2.1396484zm3.4494141-7.7492188c1.2058594 0 2.1875.98164062 2.1875 2.1875s-.9816406 2.1875-2.1875 2.1875-2.1875-.98164062-2.1875-2.1875.9816406-2.1875 2.1875-2.1875zm-65.625 26.25c-1.20585938 0-2.1875-.9816406-2.1875-2.1875s.98164062-2.1875 2.1875-2.1875 2.1875.9816406 2.1875 2.1875-.98164062 2.1875-2.1875 2.1875zm21.875-21.875c-1.2058594 0-2.1875-.98164062-2.1875-2.1875s.9816406-2.1875 2.1875-2.1875 2.1875.98164062 2.1875 2.1875-.9816406 2.1875-2.1875 2.1875zm21.875 17.5c-1.2058594 0-2.1875-.9816406-2.1875-2.1875s.9816406-2.1875 2.1875-2.1875 2.1875.9816406 2.1875 2.1875-.9816406 2.1875-2.1875 2.1875zm-17.5 0h-8.75c-1.2085938 0-2.1875.9789062-2.1875 2.1875v39.375c0 1.2085938.9789062 2.1875 2.1875 2.1875h8.75c1.2085937 0 2.1875-.9789062 2.1875-2.1875v-39.375c0-1.2085938-.9789063-2.1875-2.1875-2.1875zm-2.1875 39.375h-4.375v-35h4.375zm24.0625-21.875h-8.75c-1.2085937 0-2.1875.9789063-2.1875 2.1875v21.875c0 1.2085937.9789063 2.1875 2.1875 2.1875h8.75c1.2085937 0 2.1875-.9789063 2.1875-2.1875v-21.875c0-1.2085937-.9789063-2.1875-2.1875-2.1875zm-2.1875 21.875h-4.375v-17.5h4.375z" fill="#00a0dd"/><path d="m68.7380859 12.1242188c1.0048829.6234374 2.1792969 1.0007812 3.4494141 1.0007812 3.6244141 0 6.5625-2.9380859 6.5625-6.5625 0-3.62441406-2.9380859-6.5625-6.5625-6.5625s-6.5625 2.93808594-6.5625 6.5625c0 .75332031.153125 1.46425781.3869141 2.13828125l-12.25 9.79999995c-1.0048828-.6248046-2.1792969-1.0021484-3.4494141-1.0021484s-2.4445313.3773438-3.4494141 1.0021484l-12.25-9.79999995c.2337891-.67265625.3869141-1.38496094.3869141-2.13828125 0-3.62441406-2.9380859-6.5625-6.5625-6.5625s-6.5625 2.93808594-6.5625 6.5625c0 1.01171875.2474609 1.9578125.65625 2.81367187l-13.15507812 13.15507813c-.85585938-.4087891-1.80195313-.65625-2.81367188-.65625-3.62441406 0-6.5625 2.9380859-6.5625 6.5625s2.93808594 6.5625 6.5625 6.5625c3.6244141 0 6.5625-2.9380859 6.5625-6.5625 0-1.0117188-.2474609-1.9578125-.65625-2.8136719l13.1550781-13.1550781c.8558594.4087891 1.8019531.65625 2.8136719.65625 1.2701172 0 2.4445313-.3773438 3.4494141-1.0021484l12.25 9.8c-.2337891.6740234-.3869141 1.3863281-.3869141 2.1396484 0 3.6244141 2.9380859 6.5625 6.5625 6.5625s6.5625-2.9380859 6.5625-6.5625c0-.7533203-.153125-1.465625-.3869141-2.1396484zm3.4494141-7.7492188c1.2058594 0 2.1875.98164062 2.1875 2.1875s-.9816406 2.1875-2.1875 2.1875-2.1875-.98164062-2.1875-2.1875.9816406-2.1875 2.1875-2.1875zm-65.625 26.25c-1.20585938 0-2.1875-.9816406-2.1875-2.1875s.98164062-2.1875 2.1875-2.1875 2.1875.9816406 2.1875 2.1875-.98164062 2.1875-2.1875 2.1875zm21.875-21.875c-1.2058594 0-2.1875-.98164062-2.1875-2.1875s.9816406-2.1875 2.1875-2.1875 2.1875.98164062 2.1875 2.1875-.9816406 2.1875-2.1875 2.1875zm21.875 17.5c-1.2058594 0-2.1875-.9816406-2.1875-2.1875s.9816406-2.1875 2.1875-2.1875 2.1875.9816406 2.1875 2.1875-.9816406 2.1875-2.1875 2.1875z" fill="#527d89"/></g></svg>