<svg height="74" viewBox="0 0 96 74" width="96" xmlns="http://www.w3.org/2000/svg"><g fill="none" fill-rule="evenodd"><path d="m70.212766 0h-63.82978728c-3.52393617 0-6.38297872 2.85904255-6.38297872 6.38297872v46.80851068c0 3.5239361 2.85904255 6.3829787 6.38297872 6.3829787h63.82978728c3.5239361 0 6.3829787-2.8590426 6.3829787-6.3829787v-46.80851068c0-3.52393617-2.8590426-6.38297872-6.3829787-6.38297872zm2.1276595 53.1914894c0 1.1702127-.9574468 2.1276595-2.1276595 2.1276595h-63.82978728c-1.17021276 0-2.12765957-.9574468-2.12765957-2.1276595v-46.80851068c0-1.17021276.95744681-2.12765957 2.12765957-2.12765957h63.82978728c1.1702127 0 2.1276595.95744681 2.1276595 2.12765957zm-46.8085106-9.0425532v1.0638298c0 .8776595-.7180851 1.5957446-1.5957447 1.5957446h-9.5744681c-.8776595 0-1.5957447-.7180851-1.5957447-1.5957446v-1.0638298c0-.8776596.7180852-1.5957447 1.5957447-1.5957447h9.5744681c.8776596 0 1.5957447.7180851 1.5957447 1.5957447zm25.5319149 0v1.0638298c0 .8776595-.7180851 1.5957446-1.5957447 1.5957446h-18.0851064c-.8776596 0-1.5957447-.7180851-1.5957447-1.5957446v-1.0638298c0-.8776596.7180851-1.5957447 1.5957447-1.5957447h18.0851064c.8776596 0 1.5957447.7180851 1.5957447 1.5957447zm13.8297872-35.6382979h-10.6382979c-1.768617 0-3.1914893 1.42287234-3.1914893 3.1914894v6.3829787c0 1.768617 1.4228723 3.1914893 3.1914893 3.1914893h10.6382979c1.768617 0 3.1914894-1.4228723 3.1914894-3.1914893v-6.3829787c0-1.76861706-1.4228724-3.1914894-3.1914894-3.1914894zm-1.0638298 8.5106383h-8.5106383v-4.2553192h8.5106383zm-29.2553191 21.2765957h-7.4468085c-.8776596 0-1.5957447-.7180851-1.5957447-1.5957446v-5.319149c0-.8776596.7180851-1.5957447 1.5957447-1.5957447h7.4468085c.8776596 0 1.5957447.7180851 1.5957447 1.5957447v5.319149c0 .8776595-.7180851 1.5957446-1.5957447 1.5957446zm3.7234042-1.5957446v-5.319149c0-.8776596.7180851-1.5957447 1.5957447-1.5957447h7.4468085c.8776596 0 1.5957447.7180851 1.5957447 1.5957447v5.319149c0 .8776595-.7180851 1.5957446-1.5957447 1.5957446h-7.4468085c-.8776596 0-1.5957447-.7180851-1.5957447-1.5957446zm-25.5319149 0v-5.319149c0-.8776596.7180852-1.5957447 1.5957447-1.5957447h7.4468085c.8776596 0 1.5957447.7180851 1.5957447 1.5957447v5.319149c0 .8776595-.7180851 1.5957446-1.5957447 1.5957446h-7.4468085c-.8776595 0-1.5957447-.7180851-1.5957447-1.5957446zm51.0638298-5.319149v5.319149c0 .8776595-.7180851 1.5957446-1.5957446 1.5957446h-9.5744681c-.8776596 0-1.5957447-.7180851-1.5957447-1.5957446v-5.319149c0-.8776596.7180851-1.5957447 1.5957447-1.5957447h9.5744681c.8776595 0 1.5957446.7180851 1.5957446 1.5957447z" fill="#00a0dd" fill-rule="nonzero" transform="translate(0 14.425532)"/><g transform="translate(54.106383)"><path d="m27.5872936 8.59459619 3.7928308 1.90455891 1.8960249 3.8083347c.211671.4244243.6442674.6925102 1.1174677.6925102.4732004 0 .9057967-.2680859 1.1174678-.6925102l1.8960249-3.8083347 3.7928307-1.90455891c.4249399-.21164659.6936766-.64640393.6936766-1.12221749 0-.47581355-.2687367-.91057089-.6936766-1.12221748l-3.7928307-1.90455891-1.8960249-3.8083347c-.4240287-.84969015-1.8109069-.84969015-2.2349355 0l-1.8960249 3.8083347-3.7928308 1.90455891c-.4249399.21164659-.6936766.64640393-.6936766 1.12221748 0 .47581356.2687367.9105709.6936766 1.12221749zm5.2629042-2.07630351c.2449373-.12287123.4436739-.32133858.5667118-.56594399l.9767074-1.95234869.9767074 1.95551039c.1235853.24342877.3222643.44073008.5667119.56278229l1.9565807.97854562-1.9565807.98170732c-.2446049.12333045-.4432141.32167057-.5667119.56594399l-.9767074 1.95551039-.9767074-1.95234869c-.1234977-.24427342-.322107-.44261355-.5667118-.56594399l-1.9565808-.98170732zm4.5565958 23.92795502-1.8958261-3.8083844c-.4239841-.8504844-1.8107168-.8504844-2.234701 0l-1.895826 3.8083844-3.7924329 1.9038006c-.4253272.2114907-.6943906.6464865-.6943906 1.1226237 0 .4761373.2690634.911133.6943906 1.1226237l3.7924329 1.9038007 1.895826 3.8083844c.2116488.4244298.6441998.6925192 1.1173505.6925192.4731508 0 .9057017-.2680894 1.1173505-.6925192l1.8958261-3.8083844 3.7924328-1.9038007c.4253272-.2114907.6943906-.6464864.6943906-1.1226237 0-.4761372-.2690634-.911133-.6943906-1.1226237zm-1.4697573 4.0315075c-.2448264.1233983-.443488.3220677-.5667119.5667344l-.9767074 1.9555104-.9767074-1.9555104c-.1232239-.2446667-.3218854-.4433361-.5667118-.5667344l-1.9565808-.9777552 1.9565808-.9785456c.2448264-.1233983.4434879-.3220678.5667118-.5667344l.9767074-1.95472.9767074 1.95472c.1232239.2446666.3218855.4433361.5667119.5667344l1.9565807.9785456zm-4.0434193-14.0059403c-.0004743-.4896463-.2764504-.9373006-.7135471-1.1574279l-9.0864254-4.5481345-4.5428091-9.10838435c-.4382987-.87715753-1.8718504-.87715753-2.3101492 0l-4.5428091 9.10838435-9.08642539 4.5481345c-.43968713.2181236-.71783469.6667618-.71783469 1.1578318s.27814756.9397082.71783469 1.1578318l9.08642539 4.5521729 4.5428091 9.1035383c.2187945.4377409.6659493.7142382 1.1550746.7142382s.9362801-.2764973 1.1550746-.7142382l4.5428091-9.1035383 9.0864254-4.5505575c.4374794-.2209513.7135471-.6694917.7135471-1.1598511z" fill="#527d89" fill-rule="nonzero"/><path d="m19.8188651 24.2020076c-.198627.1162427-.3597884.3040033-.4595635.5354129l-2.8459564 6.6425595-2.8459564-6.6425595c-.0997751-.2314096-.2609365-.4191702-.4595635-.5354129l-5.6944801-3.3224015 5.6944801-3.3216536c.1983574-.1166771.3594155-.3043174.4595635-.5354129l2.8459564-6.6425596 2.8459564 6.6425596c.100148.2310955.2612061.4187358.4595635.5354129l5.6944801 3.3216536z" fill="#fff"/></g></g></svg>