<svg height="70" viewBox="0 0 92 70" width="92" xmlns="http://www.w3.org/2000/svg"><g fill="none" fill-rule="evenodd"><path d="m53.7714844 19.3183594 2.3925781-2.3925782c.6425781-.6425781.6425781-1.6816406 0-2.3242187l-.7792969-.7792969c-.6425781-.6425781-1.6816406-.6425781-2.3242187 0l-2.3925781 2.3925782c-4.8945313-4.2382813-11.1425782-6.95898442-18.0058594-7.4101563v-4.4296875h3.4179687c.9023438 0 1.640625-.73828125 1.640625-1.640625v-1.09375c0-.90234375-.7382812-1.640625-1.640625-1.640625h-10.9375c-.9023437 0-1.640625.73828125-1.640625 1.640625v1.09375c0 .90234375.7382813 1.640625 1.640625 1.640625h3.1445313v4.45703125c-15.8183594 1.18945315-28.2871094 14.41015625-28.2871094 30.54296875 0 16.9121094 13.7128906 30.625 30.625 30.625s30.625-13.7128906 30.625-30.625c0-7.6699219-2.8164062-14.6835938-7.4785156-20.0566406zm-23.1464844 46.3066406c-14.5058594 0-26.25-11.7441406-26.25-26.25s11.7441406-26.25 26.25-26.25 26.25 11.7441406 26.25 26.25-11.7441406 26.25-26.25 26.25zm.546875-17.5h-1.09375c-.9023438 0-1.640625-.7382812-1.640625-1.640625v-22.96875c0-.9023438.7382812-1.640625 1.640625-1.640625h1.09375c.9023438 0 1.640625.7382812 1.640625 1.640625v22.96875c0 .9023438-.7382812 1.640625-1.640625 1.640625z" fill="#00a0dd" fill-rule="nonzero" transform="translate(30)"/><g stroke-linecap="round"><g stroke="#fff" stroke-width="6.125"><path d="m9.4375 42.4375h32.375"/><path d="m13.8125 32.8125h32.375"/><path d="m13.8125 23.1875h32.375"/></g><g stroke="#527d89" stroke-width="3.5"><path d="m9.472039 23.1875h34.930922"/><path d="m2.4375 42.4375h32.375"/><path d="m12.016447 32.8125h28.967106"/></g></g></g></svg>