<svg aria-hidden="true" focusable="false" viewBox="0 0 150 150" fill="none" xmlns="http://www.w3.org/2000/svg">
  <path d="M143.086 44.422L79.315 17.86A13.452 13.452 0 0075 17a13.451 13.451 0 00-4.336.86L6.914 44.422A11.276 11.276 0 000 54.8v78.45A3.751 3.751 0 003.75 137h15a3.75 3.75 0 003.75-3.75V69.5c0-4.123 3.42-7.5 7.638-7.5h89.724c4.218 0 7.638 3.377 7.638 7.5v63.75a3.752 3.752 0 003.75 3.75h15a3.752 3.752 0 003.75-3.75V54.8a11.275 11.275 0 00-6.914-10.378zm-33.984 55.88l-3.692-14.766A16.192 16.192 0 0089.674 73.25H60.326a16.193 16.193 0 00-15.73 12.279l-3.69 14.766a11.223 11.223 0 00-7.156 10.455v7.5c0 2.747 1.55 5.044 3.75 6.352v6.773A5.622 5.622 0 0043.125 137h7.5a5.625 5.625 0 005.625-5.625v-5.625h37.5v5.625A5.622 5.622 0 0099.375 137h7.5a5.622 5.622 0 003.977-1.648 5.622 5.622 0 001.648-3.977v-6.773c2.201-1.308 3.75-3.605 3.75-6.352v-7.5a11.225 11.225 0 00-7.155-10.453l.007.005zm-53.593-12.04a4.957 4.957 0 014.817-3.762h29.348a4.957 4.957 0 014.817 3.762L97.303 99.5H52.702l2.807-11.238zm-6.759 29.953c-3.375 0-5.625-2.241-5.625-5.606 0-3.366 2.25-5.609 5.625-5.609s8.438 5.046 8.438 8.412c0 3.365-5.063 2.803-8.438 2.803zm52.5 0c-3.375 0-8.438.56-8.438-2.813 0-3.372 5.063-8.402 8.438-8.402 3.375 0 5.625 2.245 5.625 5.609 0 3.363-2.25 5.606-5.625 5.606z" fill="#85B5C7"/>
</svg>